<svg xmlns="http://www.w3.org/2000/svg" width="1087.5" height="90.863" viewBox="0 0 1087.5 90.863">
  <g id="Group_89" data-name="Group 89" transform="translate(-416.5 -190)">
    <g id="hr-bottle" transform="translate(802.1 190.089)">
      <g id="Group_87" data-name="Group 87" transform="translate(305.338 27.523)">
        <path id="Path_971" data-name="Path 971" d="M151.4,17v0Z" transform="translate(-142.05 -9.104)" fill="#ec1c24"/>
        <path id="Path_972" data-name="Path 972" d="M151.4,17Z" transform="translate(-142.05 -9.104)" fill="#ec1c24"/>
        <path id="Path_973" data-name="Path 973" d="M151.4,17Z" transform="translate(-142.05 -9.104)" fill="#ec1c24"/>
        <path id="Path_974" data-name="Path 974" d="M151.4,16.9Z" transform="translate(-142.05 -9.212)" fill="#ec1c24"/>
        <path id="Path_975" data-name="Path 975" d="M151.4,17Z" transform="translate(-142.05 -9.104)" fill="#ec1c24"/>
        <path id="Path_976" data-name="Path 976" d="M151.4,17.081Z" transform="translate(-142.05 -9.185)" fill="#ec1c24"/>
        <path id="Path_977" data-name="Path 977" d="M151.4,17Z" transform="translate(-142.05 -9.104)" fill="#ec1c24"/>
        <path id="Path_978" data-name="Path 978" d="M151.4,16.9Z" transform="translate(-142.05 -9.212)" fill="#ec1c24"/>
        <path id="Path_979" data-name="Path 979" d="M151.4,16.9Z" transform="translate(-142.05 -9.212)" fill="#ec1c24"/>
        <path id="Path_980" data-name="Path 980" d="M151.4,16.9Z" transform="translate(-142.05 -9.212)" fill="#ec1c24"/>
        <path id="Path_981" data-name="Path 981" d="M151.4,17Z" transform="translate(-142.05 -9.104)" fill="#ec1c24"/>
        <path id="Path_982" data-name="Path 982" d="M151.4,17Z" transform="translate(-142.05 -9.104)" fill="#ec1c24"/>
        <path id="Path_983" data-name="Path 983" d="M151.4,17Z" transform="translate(-142.05 -9.104)" fill="#ec1c24"/>
        <path id="Path_984" data-name="Path 984" d="M151.4,17Z" transform="translate(-142.05 -9.104)" fill="#ec1c24"/>
        <path id="Path_985" data-name="Path 985" d="M151.4,17Z" transform="translate(-142.05 -9.104)" fill="#ec1c24"/>
        <path id="Path_986" data-name="Path 986" d="M151.4,17Z" transform="translate(-142.05 -9.104)" fill="#ec1c24"/>
        <path id="Path_987" data-name="Path 987" d="M151.4,17Z" transform="translate(-142.05 -9.104)" fill="#ec1c24"/>
        <path id="Path_988" data-name="Path 988" d="M151.4,17.081Z" transform="translate(-142.05 -9.185)" fill="#ec1c24"/>
        <path id="Path_989" data-name="Path 989" d="M151.4,16.9h0v0Z" transform="translate(-142.05 -9.212)" fill="#ec1c24"/>
        <path id="Path_990" data-name="Path 990" d="M151.4,16.9Z" transform="translate(-142.05 -9.212)" fill="#ec1c24"/>
        <path id="Path_991" data-name="Path 991" d="M151.4,16.9Z" transform="translate(-142.05 -9.212)" fill="#ec1c24"/>
        <path id="Path_992" data-name="Path 992" d="M151.5,17.2v0Z" transform="translate(-141.942 -8.889)" fill="#ec1c24"/>
        <path id="Path_993" data-name="Path 993" d="M151.4,17.2Z" transform="translate(-142.05 -8.889)" fill="#ec1c24"/>
        <path id="Path_994" data-name="Path 994" d="M148.748,24.5Z" transform="translate(-145.008 -1.021)" fill="#ec1c24"/>
        <path id="Path_995" data-name="Path 995" d="M149.2,20.981Z" transform="translate(-144.421 -4.982)" fill="#ec1c24"/>
        <path id="Path_996" data-name="Path 996" d="M150.7,30.9Z" transform="translate(-142.804 5.877)" fill="#ec1c24"/>
        <path id="Path_997" data-name="Path 997" d="M150.5,31.316c.208-.208.208-.416.416-.416h-.208Z" transform="translate(-143.02 5.877)" fill="#ec1c24"/>
        <path id="Path_998" data-name="Path 998" d="M147.916,21.7l-.416.208A.725.725,0,0,0,147.916,21.7Z" transform="translate(-146.253 -4.039)" fill="#ec1c24"/>
        <path id="Path_999" data-name="Path 999" d="M148.616,21.4a.643.643,0,0,0-.416.208A.725.725,0,0,1,148.616,21.4Z" transform="translate(-145.499 -4.362)" fill="#ec1c24"/>
        <path id="Path_1000" data-name="Path 1000" d="M149.148,31.6Z" transform="translate(-144.577 6.632)" fill="#ec1c24"/>
        <path id="Path_1001" data-name="Path 1001" d="M156.458,42.913v1.247a5.073,5.073,0,0,1-.208-1.454c0-.416.208,0,.208.208v-.623c0-.416-.208-.623,0-1.247,0-.208.208-.623,0-.623,0,.208-.208.208-.416.208V40h0V39.8h0v-.623s.208.416.208.208V37.718a.725.725,0,0,1-.208-.416v-.416h0v-2.7c0-.416,0,.623.208.208v0l-.208-.208V25.044h0v-.416h0V23.8h0v-.623h0V21.3h0c.208,0,0-.208.208,0h-.208V21.1h0v-.623a3.536,3.536,0,0,0-.208-1.454h0c-.208-.831-.208-1.662-.416-2.493a4.417,4.417,0,0,0-3.74-3.324,2.259,2.259,0,0,0-1.039.208c.208.208.416.416.623.416a1.575,1.575,0,0,1,.416.831v.208c.208.416-.208,1.039-.831,1.454-.208,0,0-.208,0,0-.208.208-.416.208-.831.416h0c-.623.208-.831.416-1.454.623-.208.208-.416.208-.623.416-.208,0-.416.208-.623.208l-.208.208c-.208,0,0,.208,0,.208v-.208a1.6,1.6,0,0,0,.416.623c.416.416-.623-1.039-.208-.623a1.843,1.843,0,0,0,.831,1.039c.416.208,1.039.416,1.039.623.416.208,0-.208.416,0h.208a.644.644,0,0,0,.416.208.2.2,0,0,1-.208-.208,4.542,4.542,0,0,1,1.039.623l-.416-.208a1.139,1.139,0,0,1,.831,1.247c0,.623-.623,1.039-1.039,1.247h0c-.831.416-.623.416-1.454.831h0c-.208.208-.416.208-.623.416.208-.208-.416.208-.208,0-1.039.623-.831.208-.623,1.039v.208c.208.208.208.416.623.623-.416-.208.208.208-.208,0a10.248,10.248,0,0,0,1.87.831c.416,0-.831-.416-.623-.416-.208-.208.416,0,.623.208s.623.416,1.039.831l-.208-.208c.208.208.416.416.416.623.208.208,0,.416.208.416v-.623a.979.979,0,0,1-.208,1.247c0-.208,0-.208.208-.416-.208.208-.208.416-.416.416,0,0,.416-.623.208-1.039v.416c0,.416-.416.623-.623,1.039h0a.725.725,0,0,1-.416.208l.208-.208c-.208.208-.416.208-.831.416.208,0,0,.208.208,0-.831.623-.831.208-1.454.623h0a2.989,2.989,0,0,1-.623.416c-1.039,1.039.208-.208-.208.416-.208.208-.208.208-.416.208.208,0,.416.416.623.623h0c.623.623.416.208,1.039.623h-.416l.416.208h-.208c.416.208.623.208,1.039.416a.643.643,0,0,1,.416.208c.208.208-.208,0,.416.208-.208,0-.208,0-.416-.208H149.6a2.96,2.96,0,0,0,.831.416l-.208-.208.623.416h0c0,.208.208.208.208.416a.2.2,0,0,1-.208-.208l.208.623s-.208.416-.208.208c-.208.416-.208.831-.831,1.039l-.208.208a6.221,6.221,0,0,0-1.662.831l-.416.208c-.416.208.623-.208-.208.416-.623.416-.208,0-.416.208h0l-.208.208h0c.208.416,0,.208.416.623.208.208.208.416.416.416v.208h0c.416.416.623.416.623.208l.208.208h-.208c.416.208.416,0,1.039.416.208.208.416.208.208.208l.416.208h0l.623.416h0l.416.416h0l.208.416c0,.208-.208-.208-.208-.416,0,.416.208.416,0,1.039v-.208c-.208.208-.208.416-.416.623.208,0,.416-.623.416-.208,0,.208,0,.208-.208.416a.725.725,0,0,1-.416.208h0c-.416.208-.208.208-.416.416-.416.208-.416.208-.623.208-.623.208.416,0-.208.208a11.92,11.92,0,0,0-1.454.831h0l-.416.208h0l-.208.208s-.208,0,0,.416a2.99,2.99,0,0,0,.416.623,1.575,1.575,0,0,0,.831.416h0l1.247.416.416.208c-.208-.208.208-.208.416,0h.208a.725.725,0,0,0,.416.208h-.208l-.208-.208h0v.208h0l.416.623a1.418,1.418,0,0,1-.416,1.87c0-.208-.208,0-.416,0,.208-.208.623-.208.623-.623a.763.763,0,0,0,.208-.623v.208a.644.644,0,0,1-.208.416c0,.208-.416.416-.416.416a2.989,2.989,0,0,0-.623.416c.208,0,.208,0,0,.208s-.623.416-.208.416h-.416l.208-.208c-.208.208-.208.208-.416.208h1.87a1.249,1.249,0,0,0,.831-.208c.208,0,.623-.208.831-.208.416-.208.831-.416.831-.623v.208a2.571,2.571,0,0,0,.416-.623c0-.208.208-.208.208-.416l.208-.208c.208,0,.416,0,0,.416.208-.208.416-.416.416-.623,0,.208-.208.208-.208,0,.416-.416.208-.208.623-.831,0,.208-.208,0,0-.416a.2.2,0,0,1,.208.208v-.831c0,.208.208,0,.208,0a4.713,4.713,0,0,0,.208-.831v.416c.208-.831,0-.831,0-1.454h0v-.208s.208.208.208,0h0V43.328C156.458,43.744,156.458,42.7,156.458,42.913Zm-9.142-4.363h0c.208.208.208.208.208.416C147.316,38.757,147.316,38.757,147.316,38.549Zm4.156,4.363V42.5C151.679,42.5,151.679,42.7,151.471,42.913ZM156.042,21.3Zm0,23.479h0V43.744h0a.763.763,0,0,0,.208.623v.416Z" transform="translate(-146.9 -13.2)" fill="#ec1c24"/>
        <path id="Path_1002" data-name="Path 1002" d="M148.7,29.8Z" transform="translate(-144.96 4.692)" fill="#ec1c24"/>
        <path id="Path_1003" data-name="Path 1003" d="M148.7,24.5Z" transform="translate(-144.96 -1.021)" fill="#ec1c24"/>
        <path id="Path_1004" data-name="Path 1004" d="M151.5,26.008v0Z" transform="translate(-141.942 0.38)" fill="#ec1c24"/>
        <path id="Path_1005" data-name="Path 1005" d="M151.4,19.7v0Z" transform="translate(-142.05 -6.194)" fill="#ec1c24"/>
        <path id="Path_1006" data-name="Path 1006" d="M151.4,22v.208h0Z" transform="translate(-142.05 -3.715)" fill="#ec1c24"/>
        <path id="Path_1007" data-name="Path 1007" d="M151.4,22.971Z" transform="translate(-142.05 -3.024)" fill="#ec1c24"/>
        <path id="Path_1008" data-name="Path 1008" d="M151.4,28.83v.416c.208-.623,0-.208,0-.623C151.608,28.415,151.4,29.038,151.4,28.83Z" transform="translate(-142.05 3.376)" fill="#ec1c24"/>
        <path id="Path_1009" data-name="Path 1009" d="M148.8,27.7Z" transform="translate(-144.852 2.428)" fill="#ec1c24"/>
        <path id="Path_1010" data-name="Path 1010" d="M148.408,26.508,148.2,26.3v.208Z" transform="translate(-145.499 0.919)" fill="#ec1c24"/>
        <path id="Path_1011" data-name="Path 1011" d="M147,25.408l.416-.208-.416.208.208.416Z" transform="translate(-146.792 -0.266)" fill="#ec1c24"/>
        <path id="Path_1012" data-name="Path 1012" d="M147.616,25.1c-.208,0-.208.208-.416.208A.725.725,0,0,0,147.616,25.1Z" transform="translate(-146.577 -0.374)" fill="#ec1c24"/>
      </g>
      <g id="Group_88" data-name="Group 88" transform="translate(301.182 29.808)">
        <path id="Path_1013" data-name="Path 1013" d="M146.7,31.3Z" transform="translate(-142.96 4.023)" fill="#ec1c24"/>
        <path id="Path_1014" data-name="Path 1014" d="M146.7,31.481h0c.208-.208,0-.208,0,0Z" transform="translate(-142.96 4.05)" fill="#ec1c24"/>
        <path id="Path_1015" data-name="Path 1015" d="M146.8,31.3Z" transform="translate(-142.852 4.023)" fill="#ec1c24"/>
        <path id="Path_1016" data-name="Path 1016" d="M147.2,27.8Z" transform="translate(-142.421 0.25)" fill="#ec1c24"/>
        <path id="Path_1017" data-name="Path 1017" d="M147.2,27.8Z" transform="translate(-142.421 0.25)" fill="#ec1c24"/>
        <path id="Path_1018" data-name="Path 1018" d="M147.8,27.5Z" transform="translate(-141.774 -0.073)" fill="#ec1c24"/>
        <path id="Path_1019" data-name="Path 1019" d="M147.4,27.7Z" transform="translate(-142.205 0.143)" fill="#ec1c24"/>
        <path id="Path_1020" data-name="Path 1020" d="M147.3,27.8Z" transform="translate(-142.313 0.25)" fill="#ec1c24"/>
        <path id="Path_1021" data-name="Path 1021" d="M146.8,23.1Z" transform="translate(-142.852 -4.815)" fill="#ec1c24"/>
        <path id="Path_1022" data-name="Path 1022" d="M147.8,23.5Z" transform="translate(-141.774 -4.384)" fill="#ec1c24"/>
        <path id="Path_1023" data-name="Path 1023" d="M146.948,23.1Z" transform="translate(-142.792 -4.815)" fill="#ec1c24"/>
        <path id="Path_1024" data-name="Path 1024" d="M151.341,34.039h0c0-.208,0-.208-.208-.208h-.208l-.208-.208h-1.87V31.546h0V30.507h.208c.208,0,.416-.208.623-.208.416-.208.623-.208,1.039-.416h0a.2.2,0,0,0,.208-.208h0c0-.208.208-.208.208-.416h0v-.416h0v-.208h0l-.416-.416h0c-.208,0,0,0-.208-.208H150.3a.2.2,0,0,1-.208-.208h0l-.208-.208h-.623c-.208,0,0,0-.208-.208h-.831c0-.623-.208-1.247,0-1.662v-.416h0V24.9h0v-.416h0l.208-.208h.208v-.208h.416a1088395048030.41,1088395048030.41,0,0,0,.416-.416h0a.2.2,0,0,0,.208-.208h0l.416-.416h0v-.416h0a.447.447,0,0,0-.416-.416h-.208l-.208-.208h0c-.208,0-.208-.208-.416-.208h0l-.208-.208h-.208c-.208,0-.208-.208-.416-.208H147.6a.2.2,0,0,1-.208-.208h0l-.208-.208h0c.208-.416,0-1.87.208-2.909h.831l1.247-.623c.208,0,.208-.208.416-.416h0l.208-.208h0v-.208h0V16.17h0l-.208-.208h-.208c-.208,0-.208-.208-.416-.208h0c-.208,0,0,0-.208-.208h-.208a.2.2,0,0,1-.208-.208h0l-.208-.208h-.623c-.208,0,0,0-.208-.208h-.623v-.208h-.208l-.416-.208a1.571,1.571,0,0,0-.831-.208v.208c.208.208,0,.416,0,.831h0v1.039h0c.208,0,0,.623,0,1.039v-.208c0,.208-.208.623-.208.831v-.208c0,.623,0,0,.208.623,0,0-.208-.208-.208.208,0,.208.208.831,0,1.247,0,0,0-.208.208,0,0,.416-.208.831,0,1.247h0c0,.208,0,.831.208,1.039-.208.208.208,1.454-.208,1.454v.831h0v.831h0v1.454h0a4.318,4.318,0,0,0,0,1.662h0c0,.831-.208,1.87,0,2.078v.416c0-.623.208,0,.208-.208v.416h0c-.208-.208,0,.831-.208.831V35.7l.208-.208v.831c0,.623-.208-.208-.208,0v.208h0v1.662a8.38,8.38,0,0,0,0,2.286v1.039s.208-.208,0,.208c-.208-.208,0,.623-.208,1.039,0-.208,0,1.039.208.623,0,.208,0,0-.208.208V46.09h0l-.208.416c0,.208.208.208,0,.416h0c-.208,1.662,0,3.532-.208,5.195h0v1.247c.208-.208.831-.208.831-.416l-.208.208h0a.2.2,0,0,0,.208-.208h.208c.208,0,.208,0,.416-.208h0a.2.2,0,0,0,.208-.208h0a10.129,10.129,0,0,0,1.454-.623,1.381,1.381,0,0,0,.831-1.039v-.208h0a.2.2,0,0,0-.208-.208h0c-.208-.208-.208-.208-.208-.416h0l-.208-.208h-.208a.725.725,0,0,1-.416-.208h-.416c-.208,0-.208,0-.208-.208h0l-.208-.208h-.831v-2.7h0l.208-.208h0v0h-.208a.2.2,0,0,1,.208-.208h.416c.208,0,.208-.208.416-.208h0a.725.725,0,0,0,.416-.208h0c.208,0,.208-.208.416-.208h0c.208-.208.416-.208.416-.416h0c.208-.416,0-.623-.416-1.039h0L147.6,43.8h0a.725.725,0,0,0-.416-.208h0l-.208-.208h-.208a.725.725,0,0,1-.416-.208h-.416v0h-.208l-.208-.208h0v-.208c0,.208.208,0,.416-.208V42.35s0,.623-.208.416V42.35c0,.208,0-.416-.208-.416V40.273h.208v.416h0v-.416c0,.208-.208.623,0,.831V40.9a9,9,0,0,1,.208,1.039v-.416c-.208.208,0-.831-.208-.623.208-.208,0-.416.208-.831h.208a.725.725,0,0,0,.416-.208h.208c.208,0,0,0,.208-.208h0c.208,0,.208-.208.208,0h.416l.208-.208h0a.2.2,0,0,0-.208.208h.623c.208,0,0,0,0-.208h0v-.208h0v-.208h0v-.208h0V38.61h0C151.549,34.247,151.341,34.247,151.341,34.039ZM148.432,22.4Zm-1.454,12.051Zm1.662,8.311Zm-.416-4.363Zm.208-2.078Zm-.208-11.636v-.623a.39.39,0,0,1,0,.623h0l.208.623C148.432,25.1,148.225,24.9,148.225,24.689Zm.416.831Zm2.493,9.142Z" transform="translate(-144.9 -14.3)" fill="#ec1c24"/>
        <path id="Path_1025" data-name="Path 1025" d="M148,23.8Z" transform="translate(-141.558 -4.061)" fill="#ec1c24"/>
        <path id="Path_1026" data-name="Path 1026" d="M147.5,23.3Z" transform="translate(-142.097 -4.6)" fill="#ec1c24"/>
        <path id="Path_1027" data-name="Path 1027" d="M147.7,23.5Z" transform="translate(-141.882 -4.384)" fill="#ec1c24"/>
        <path id="Path_1028" data-name="Path 1028" d="M146.7,14.9Z" transform="translate(-142.96 -13.653)" fill="#ec1c24"/>
        <path id="Path_1029" data-name="Path 1029" d="M147.2,18Z" transform="translate(-142.421 -10.312)" fill="#ec1c24"/>
        <path id="Path_1030" data-name="Path 1030" d="M147.2,18Z" transform="translate(-142.421 -10.312)" fill="#ec1c24"/>
        <path id="Path_1031" data-name="Path 1031" d="M147.6,17.8Z" transform="translate(-141.99 -10.528)" fill="#ec1c24"/>
        <path id="Path_1032" data-name="Path 1032" d="M147.3,17.9Z" transform="translate(-142.313 -10.42)" fill="#ec1c24"/>
        <path id="Path_1033" data-name="Path 1033" d="M147.3,18Z" transform="translate(-142.313 -10.312)" fill="#ec1c24"/>
        <path id="Path_1034" data-name="Path 1034" d="M146.6,29.235h0v0Z" transform="translate(-143.067 1.517)" fill="#ec1c24"/>
        <path id="Path_1035" data-name="Path 1035" d="M146.6,29.131Z" transform="translate(-143.067 1.621)" fill="#ec1c24"/>
        <path id="Path_1036" data-name="Path 1036" d="M146.6,28.648v0Z" transform="translate(-143.067 1.065)" fill="#ec1c24"/>
        <path id="Path_1037" data-name="Path 1037" d="M146.648,28.6h0v0Z" transform="translate(-143.115 1.113)" fill="#ec1c24"/>
        <path id="Path_1038" data-name="Path 1038" d="M146.6,28.8Z" transform="translate(-143.067 1.328)" fill="#ec1c24"/>
        <path id="Path_1039" data-name="Path 1039" d="M146.5,28.916V28.5h0Z" transform="translate(-143.175 1.005)" fill="#ec1c24"/>
        <path id="Path_1040" data-name="Path 1040" d="M146.6,28.452v-.208h0v.208Z" transform="translate(-143.067 0.637)" fill="#ec1c24"/>
        <path id="Path_1041" data-name="Path 1041" d="M146.7,26.1Z" transform="translate(-142.96 -1.582)" fill="#ec1c24"/>
        <path id="Path_1042" data-name="Path 1042" d="M146.7,26.208h0v0Z" transform="translate(-142.96 -1.69)" fill="#ec1c24"/>
        <path id="Path_1043" data-name="Path 1043" d="M146.7,25.908h0v0Z" transform="translate(-142.96 -2.013)" fill="#ec1c24"/>
        <path id="Path_1044" data-name="Path 1044" d="M146.7,18.4h0v0Z" transform="translate(-142.96 -9.881)" fill="#ec1c24"/>
        <path id="Path_1045" data-name="Path 1045" d="M146.7,22.3h0v0Z" transform="translate(-142.96 -5.677)" fill="#ec1c24"/>
        <path id="Path_1046" data-name="Path 1046" d="M145.9,31.452v0Z" transform="translate(-143.822 3.87)" fill="#ec1c24"/>
        <path id="Path_1047" data-name="Path 1047" d="M146.7,25.1v.208h0Z" transform="translate(-142.96 -2.66)" fill="#ec1c24"/>
        <path id="Path_1048" data-name="Path 1048" d="M146.6,25.4v.416h0Z" transform="translate(-143.067 -2.336)" fill="#ec1c24"/>
        <path id="Path_1049" data-name="Path 1049" d="M146.6,25.6Z" transform="translate(-143.067 -2.121)" fill="#ec1c24"/>
        <path id="Path_1050" data-name="Path 1050" d="M146.5,25.608V25.4h0Z" transform="translate(-143.175 -2.336)" fill="#ec1c24"/>
        <path id="Path_1051" data-name="Path 1051" d="M146.1,31.7h0Z" transform="translate(-143.606 4.454)" fill="#ec1c24"/>
        <path id="Path_1052" data-name="Path 1052" d="M146.548,31.681h0c0-.208-.208-.208,0,0Z" transform="translate(-143.223 4.265)" fill="#ec1c24"/>
      </g>
      <path id="Path_1053" data-name="Path 1053" d="M14.86,88.818c1.039.416-2.078-.208-.831.208a9.445,9.445,0,0,1-5.195-1.662l-.208-.416.623.623c.208.208.416.208.623.416.208,0,.208.208.416.208-.208,0-.208,0-.416-.208a6.314,6.314,0,0,1-1.454-1.039h0A7.681,7.681,0,0,0,10.7,87.987a16.167,16.167,0,0,0,1.87.623l-.623-.208a2.259,2.259,0,0,0,1.039.208h.623Zm16.415.416H30.028c-.208,0,.416-.208.831-.208h.208c-1.247,0-2.078,0-1.454.208-1.662-.208-3.324,0-3.117-.208H23.587l1.454.416a5.753,5.753,0,0,1-1.87-.208H20.886c-.208.208-.831.416.416.623,3.74.208,3.117-.416,7.688-.416.416,0-1.039.208,1.454.208a14.919,14.919,0,0,0,3.532-.416h-2.7ZM8,86.325c-.208-.208-.623-.208-.831-.416a3.648,3.648,0,0,1,1.039.831h.208ZM156.775,1.342c-.831,0-1.87.208-2.909.208h3.324C156.982,1.342,156.567,1.342,156.775,1.342ZM20.886,90.273Zm7.065-1.039h0ZM183.786,10.277c-.623-.416,1.454.831-1.87-1.87a27.083,27.083,0,0,0-3.948-2.286c.623.416,1.247.623,1.87,1.039-1.662-.831-.831-.208-.416,0,0,0-.208-.208,0-.208l1.247.831,1.247.831c.416.416-.623-.416-1.247-.623a4.347,4.347,0,0,0-1.247-.831h-.416c.416.208.623.416,1.039.623a15.162,15.162,0,0,1,2.7,1.87l.623.831c.208.208.416.208.623.416,1.247.831,1.454,1.039,1.87,1.247s.831.623,2.286,1.662C187.318,13.6,185.864,12.355,183.786,10.277Zm10.8,7.688h0C193.552,17.342,193.136,17.134,194.591,17.965Zm-5.4-2.909c-.623-.416,2.286,1.662,1.039,1.039a16.451,16.451,0,0,0,4.363,2.078h-.208C191.682,16.51,190.435,15.887,189.188,15.056ZM77.195,90.481a1.249,1.249,0,0,1,.831.208h1.662l-.416-.208ZM.731,36.457V36.25h0ZM69.922,90.065a1.557,1.557,0,0,0,1.039-.208H69.3Zm-2.7,0,1.87-.208H67.844A.763.763,0,0,0,67.221,90.065ZM72,89.649a.763.763,0,0,0,.623-.208H71.584C71.792,89.649,71.792,89.649,72,89.649Zm38.232.831h.208C110.232,90.273,110.232,90.481,110.232,90.481ZM78.649,1.758h0ZM44.781,89.234h.208C45.4,89.442,45.2,89.234,44.781,89.234Zm24.1.416c-.208,0-.623.208-.831.208a7.373,7.373,0,0,0,1.454-.208ZM133.5,1.135c-.416,0-.623.208-.623.416h2.493l-2.078.208A11.888,11.888,0,0,0,136.2,1.55L136,1.758h.623l.416-.416v.416h3.74C139.944,1.342,133.919,1.135,133.5,1.135ZM44.988,89.442Zm10.8.208h0a3.536,3.536,0,0,0-1.454-.208c1.247.208,3.532.416,3.74.416a.447.447,0,0,0,.416-.416,12.781,12.781,0,0,0-2.7.208ZM1.77,76.767c-.416-1.039-.208-.416-.208.416,0-.623-.208-1.039-.208-1.662V75.1c0-.208,0-.208-.208-.416h0v1.87l.416,1.662h0c0-.623,0-1.039.208-1.247ZM234.692,21.913a.91.91,0,0,0,.623.208h.208A1.571,1.571,0,0,0,234.692,21.913Zm11.844,1.039h.208C246.328,22.744,245.082,22.744,246.536,22.952ZM3.64,81.546h0a.725.725,0,0,0,.208.416v.208A.763.763,0,0,0,3.64,81.546ZM99.635.927H95.064l.623.208A22.626,22.626,0,0,0,99.635.927ZM240.926,22.536l-4.156-.416h-1.247c.416.208.831.208,1.247.416h1.662l.831.208c3.117.208-.831-.416,2.078,0a7.707,7.707,0,0,0,2.909.416c.208-.208,1.662,0,2.286-.208-2.493-.208-3.74-.208-4.779-.416h-.831ZM112.309,1.342h-.831a18.3,18.3,0,0,0-3.532.416h.416v.208c2.493,0,3.324-.416,5.195-.208h.416s-2.078-.208-1.039-.208h2.493c.623,0,1.039-.208,1.454-.208l-3.74.208h0ZM301.6,35.626v0c-.208.208,0,.208,0,0ZM246.952,22.952h0c0-.208-.208-.208,0,0Zm53.4,5.195c0,.208.208.208.208.416l.208.208h0l-.208-.208C300.559,28.354,300.559,28.146,300.351,28.146Zm-53.4-5.4Zm-11.428-.831Zm21.4,2.7c.831,0,.208-.208-.831-.208h0A1.571,1.571,0,0,0,256.925,24.614ZM.731,62.638V61.183h0v.208h0ZM94.025,89.857l.623-.208a.763.763,0,0,0-.623.208ZM2.809,79.884h0c0,.208.208.416.208.623a.2.2,0,0,0,.208.208C3.224,80.507,3.017,80.3,2.809,79.884ZM255.263,68.04c.208,0,.623-.208-.416,0ZM60.78,1.55l1.454-.208C59.949,1.55,60.988,1.55,60.78,1.55Zm-.208.208Zm79.372,88.722a12.366,12.366,0,0,1,1.662.208A6.684,6.684,0,0,0,139.944,90.481ZM.523,29.808h0c.208-.208.208-.831.208-1.87ZM41.248,1.342H37.716C40,1.342,41.456,1.55,41.248,1.342ZM291.417,24.614h.416a7.348,7.348,0,0,0,1.247.208c-.208,0-.208,0-.416-.208Zm1.039.208c1.87.416-1.039-.416,0,0Zm-6.441.623a.725.725,0,0,0,.208-.416l-.208.416c-.416,0-.623,0-.416-.208a.725.725,0,0,0-.416.208h-.623l.623.208S285.807,25.653,286.014,25.445Zm-2.493.416h0Zm1.87,0h0c.208,0,.416-.208.623-.208a.91.91,0,0,1-.623.208c-.208,0-.208.208-.416,0h-.416c.208,0,.208,0,.416.208C285.183,26.068,285.183,26.068,285.391,25.861Zm.831-.208Zm-14.545-1.247c-.208,0,.831.208.831.416h1.662C273.34,24.822,271.677,24.614,271.677,24.406Zm.831.416h-2.493C272.3,25.03,272.716,25.03,272.509,24.822Zm12.675,1.454a1.873,1.873,0,0,1,1.039-.208.2.2,0,0,0,.208-.208s0,.208-.416.208c-.208,0-.416.208-.623.208h-.208Zm-21.609-2.7h0Zm-8.1-.623a35.22,35.22,0,0,0-4.571-.208,44.684,44.684,0,0,1,4.779.416C256.717,23.159,254.224,22.952,255.471,22.952Zm10.389,1.454c-.208,0-.623-.208-1.87-.416l1.039.208C265.028,24.406,265.444,24.406,265.86,24.406Zm-1.039,0h0a16.044,16.044,0,0,1-2.078-.208A12.07,12.07,0,0,1,264.821,24.406ZM275,25.861c1.039,0-.623-.208,1.662-.208C275.21,25.445,272.093,25.445,275,25.861Zm-4.987-1.039h0C269.807,25.03,269.392,24.822,270.015,24.822Zm-3.74-.208h0Zm-13.09-1.247a22.583,22.583,0,0,1-3.74-.208c1.454.208,3.117.208,4.571.416C254.224,23.575,254.847,23.367,253.185,23.367Zm5.61.416h0Zm-4.571-.208a11.924,11.924,0,0,0,2.493.208c-.831,0-1.662-.208-2.7-.208Zm-7.48-.831a7.157,7.157,0,0,0-1.87-.208C245.289,22.536,246.12,22.744,246.744,22.744Zm11.428,1.039Zm0,0h0ZM272.3,26.068h0C271.677,25.861,271.677,26.068,272.3,26.068ZM267.73,25.03Zm4.571.623h-.416a36.939,36.939,0,0,1-4.156-.623,11.027,11.027,0,0,0,2.286.623h1.87c1.039.208,0,0,0,.208C272.716,26.068,274.586,26.068,272.3,25.653ZM97.973.927C96.1.719,94.025.511,94.233.719l.623.208Zm75.84,2.286c1.87.831,3.117,1.87,3.532,1.87A19.669,19.669,0,0,0,173.813,3.213Zm-4.363-1.454c.208,0,.623.208.831.208a14.489,14.489,0,0,1,3.532,1.247A13.489,13.489,0,0,0,169.449,1.758Zm37.608,17.869c1.247,0,.208-.208,0,0Zm1.039,0h0Zm.623,0h0Zm-3.324-.208c.623,0,1.247.208,1.87.208h-.208C206.85,19.419,206.226,19.419,205.4,19.419Zm-5.4-.208h0Zm19.116,1.247-2.286-.208c1.039,0,1.662.208,2.286.208Zm-16-.831c.831,0,.416-.208.831-.208.416-.208-.831,0-1.662,0S200.824,19.627,203.11,19.627ZM.316,22.121c0-.623-.208-.416-.208-.416C.108,22.744.316,22.121.316,22.121ZM.108,44.976v1.247C.316,45.808.316,47.262.108,44.976Zm0,.208c0-.831-.208.623,0,0Zm0,3.324c0,.208,0,1.454-.208,1.039,0,1.247.208,1.039.208.208ZM.523,51v-.623Q.212,50.379.523,51ZM.316,48.924l.208,1.454c0-.208.208-.208,0-.623A1.214,1.214,0,0,1,.316,48.924Zm.208,8.311L.316,56.2c0,.416,0,1.454-.208,1.454C.316,57.859.316,57.236.523,57.236Zm0,0L.731,58.69C.731,57.236.523,57.028.523,57.236ZM.316,63.053l-.208-.831.208,1.454Zm.208,3.532c-.208-.623-.208.831-.416.208a7.75,7.75,0,0,0,.416,2.493A5.76,5.76,0,0,1,.523,66.586ZM1.77,78.429Zm-.623-2.493v0a1.873,1.873,0,0,0-.208,1.039c.416,1.039.416,1.247.623,1.247l-.416-1.662S1.147,76.144,1.147,75.936Zm.208,2.493a2.989,2.989,0,0,0,.416.623,2.571,2.571,0,0,0,.416.623L1.77,78.637Zm1.454,3.324.623.623s-.416-.623-.208-.623Zm75.217,8.727c1.039.208,2.078.416,2.078.208l-.416-.208A2.276,2.276,0,0,1,78.026,90.481Zm-44.881-.208c.831,0,1.662.208,2.286.208C34.184,90.273,33.353,90.065,33.145,90.273Zm142.538-3.117c.416-.208.623-.416.416-.416ZM37.924,90.481H35.431A9.974,9.974,0,0,0,37.924,90.481ZM301.806,34.587v0Zm-288.4,55.27Zm-.208,0a1.571,1.571,0,0,1-.831-.208C12.575,89.649,12.99,89.857,13.2,89.857Zm-.623-.208c-.208,0-.416-.208-.623-.208S11.951,89.442,12.575,89.649Zm.831.208a2.781,2.781,0,0,1,1.039.208,9,9,0,0,1-1.039-.208ZM300.975,28.77Zm.831,32.829v.831a2.149,2.149,0,0,1-.208.831v0h0a5.17,5.17,0,0,1-1.039,1.454,2.249,2.249,0,0,1-1.039.831h-2.493c-.831.416-.208.208-.208.416-.831.208-1.662.416-2.7.623l-2.493.623h-.208l-.208.208a3.349,3.349,0,0,1-1.454.831h-.831a1.026,1.026,0,0,1-.623-.208.447.447,0,0,1-.416-.416,4.346,4.346,0,0,1-.831-1.247c-.208-.208-.208-.416-.416-.416a11.716,11.716,0,0,0-1.454-.208c-1.039-.416.416-.208-1.247-.623,1.87.831-4.363-.416-3.117,0-.208,0-.208,0-.208-.208-1.454-.208-4.987.416-4.363-.208-1.87.208-1.454.416-1.039.416a45.452,45.452,0,0,0-5.61.831c-1.247,0-9.558,1.247-11.428.831,1.247.208,0,.208-1.247.416l1.039.208-2.7.208h-.623c-.416,0,0-.208-1.039-.208a16.265,16.265,0,0,0-2.909.623h.208l-1.247.208c-1.039,0,3.324-.623.208-.416a7.22,7.22,0,0,1-2.7.416c1.662-.208,1.454-.416.831-.416l-2.286.208.831.208c-1.039,0-2.078.208-3.324.208,0-.208.208-.623.208-.831-2.078.623-4.571.416-6.233,1.454-3.324.208-6.857.623-10.389.831,0-.416-4.779.416-4.156,0h.208c.416,0,.623,0,.623-.208-.831,0-1.662.208-2.286.208-.416.208-1.454.416.831.208l-2.7.416c-1.454,1.039-7.065.623-11.22,1.039.208,0,.416,0,.416-.208-3.532.416-8.1.208-8.727.416l-.416-.208c-1.454.416-2.286.623-3.117.831a11.261,11.261,0,0,0-3.324,1.247s.416-.208-.208,0a26.351,26.351,0,0,1-3.324,2.286v-.208a15.965,15.965,0,0,0-1.454,1.247,15.129,15.129,0,0,0-1.454,1.247c-.208-.208-1.454.831-2.7,2.286-.623.623-1.454,1.247-2.078,1.87a4.092,4.092,0,0,1-1.662.831,13.074,13.074,0,0,1-4.156,2.7h-.416c-1.247,1.039-4.156,1.454-5.818,2.078-1.039.416-.623.416,0,.416-2.078.416-5.818,1.662-6.649,1.454-1.662.208-.623-.208-1.039-.416-2.286.208.416.623-2.7.623.416,0,1.039-.208.831-.208-1.247,0-3.532-.831-4.571-.623l.831.208a23.86,23.86,0,0,1-3.948-.208,11.715,11.715,0,0,0-1.454.208h-.208c-3.117,0-3.324-.208-6.026-.208,4.363.208-.831,0-1.247.208-2.7,0-1.247-.208-2.078-.208h-.416a11.716,11.716,0,0,0-1.454.208c-.416,0-.416-.208-.208-.208h-2.493c0,.208-1.87.208-3.532.208a9,9,0,0,0,1.039.208c-.208.208-2.7-.208-3.74-.208h-2.078c-.208.208-.831.623-3.117.623.416,0,1.039,0,.831-.208h-1.039c-.208,0,.623-.208.208-.208-1.87.416-3.117,0-5.818.208.831-.208.208-.208-.208-.208h0c-.208.208-1.039,0-1.87,0h-.831l.208.208h-1.247a19.619,19.619,0,0,0-2.909.208l-7.48-.208c.831,0,3.74,0,2.7-.208h-2.7a14.869,14.869,0,0,1-3.532-.208h-1.247c-.623,0-1.247.208-1.662.208l.208-.208H97.349c.623,0,2.493,0,1.87.208-3.324-.208-.623.208-4.156,0h-.831a.763.763,0,0,0,.623-.208c-.208,0,0,0,.208-.208a3.016,3.016,0,0,0-1.247-.208l-2.078.416-.416-.208H88.415c-1.039.208-3.948.208-4.363.416-.831-.416-2.493,0-3.117-.208a2.259,2.259,0,0,0-1.039.208c.416.208.623.416-.208.208H79.48l-.416-.208H76.779a1.249,1.249,0,0,1,.831.208,1.873,1.873,0,0,1-1.039-.208H74.909c-2.909-.416-6.441.416-9.766,0H66.39c-2.7,0-5.4-.416-7.065-.208l.208.208c-1.87,0-3.532.208-4.987.208v.208c-2.286,0-7.272.208-8.727-.208a32.941,32.941,0,0,1-4.571,0l-.416-.208h-3.74c-3.532-.416-6.649,0-9.766,0h0l-3.117.208c.831-.208-.623.208-1.454,0H16.938c2.286,0-.208-.208-.208-.416H15.484c-.416-.208.831-.208,0-.208a28.682,28.682,0,0,1-4.156-.623c.208,0,.416.208.831.416h-.623c-1.662-.623-1.039-.208-1.039-.208-.831-.623-1.454-.831-2.078-1.247a4.855,4.855,0,0,1-1.454-1.454c.623.831-.208.208-1.039-.623s-1.662-1.87-1.454-1.247c-.208-.831-.208-.416-.623-1.247A13.306,13.306,0,0,0,7.8,86.74L6.757,85.7a.2.2,0,0,1,.208.208,7.935,7.935,0,0,1-1.87-1.87c.416.623,1.039,1.039.831,1.247-.831-.831-1.662-1.662-1.247-1.454l-.208-.208h0c.208-.416,0-.623-.208-1.039a.2.2,0,0,0-.208-.208.2.2,0,0,0-.208-.208v.208c-.208-.208-.208-.416-.416-.623h0c0,.208.208.208.208.416a1.575,1.575,0,0,1-.416-.831c0-.208-.208-.208-.208-.416s-.208-.208-.208-.416a.2.2,0,0,0,.208.208c-.208-.208-.208-.623-.416-.831h0c0,.208.208.416.208.623A13.3,13.3,0,0,1,1.77,77.39c0,.623.416,1.87.416,2.286-.623-1.454-.623-1.454-.831-1.454,0-.623,0-1.039.208-1.247v-.208c-.416-1.039-.208-.416-.208.416,0-.623-.208-1.039-.208-1.662V75.1c0-.208,0-.208-.208-.416h0a3.081,3.081,0,0,1-.208-1.454v-.208h0v-.208a43.619,43.619,0,0,1-.416-4.363c0-.208.208,1.039.208.208a27.228,27.228,0,0,1,0-5.818V61.6h0v-.208h0V61.6l-.208.623v-.831a9.749,9.749,0,0,1,0-2.909c0,.623,0,1.87.208,1.454V58.9h0v-.623c0-2.286-.208-.831-.208-2.7,0,0,0,.208.208-.208L.316,53.08c0-.831.208,2.078.208-.416V47.885c-.208-1.039-.208-.208-.208.623,0-2.286.208-2.7.208-.831V41.86c0-5.195-.416,2.286-.416-2.286a9.427,9.427,0,0,0,.416-1.662,7.791,7.791,0,0,0-.208-2.286l.208.623v-.623c0-1.454-.208-1.247-.208-3.74l.208.208V29.185a.763.763,0,0,0-.208-.623V24.2A23.431,23.431,0,0,1-.1,27.107c.208-2.493.208-4.363.416-5.818A7.791,7.791,0,0,1,.523,19a2.827,2.827,0,0,1,0-1.454c0-.416.208-.831.208-1.247,0-.623.208-.831.208-1.247,0-.208.208-.208.208-.416h0a19.25,19.25,0,0,1,1.87-4.156v-.208h0c.208-.208.208-.416.416-.623h0A11.525,11.525,0,0,0,4.679,7.991,17.393,17.393,0,0,1,6.757,5.914a3.587,3.587,0,0,1,.831-.623c-.831.623-1.039,1.039-.208.208L7.8,5.083c.208-.208.623-.208.831-.416a10.163,10.163,0,0,1,3.74-2.078c-.416.208-.831.416-.623.208.416-.208,1.662-.416,2.078-.623h0l.623.208-.623-.208s-1.039.416-.623.416a12.883,12.883,0,0,1,4.779-.831h4.156c2.7-.208,10.8,0,11.22-.416,2.7.208.208.208-3.324.416l2.909.208h2.7c1.454,0,2.7-.208,3.532-.208.623,0,.416.208.416.208h4.987c.416-.208-2.493-.208,0-.416l2.7.208c4.571-.208,8.1,0,11.844,0h1.454c2.078,0,4.363,0,6.441-.208a7.157,7.157,0,0,0,1.87-.208H68.26a27.7,27.7,0,0,1,4.156,0c-.416,0,0,0,.623.208H74.7l5.61-.208a13.024,13.024,0,0,0-2.286.208h.831c1.454-.416,7.065-.416,7.9-.623,1.662.416,4.363-.208,5.4.208.623,0,1.247-.208,1.87-.208-.831-.208-1.039-.416.416-.208h.416l.623.208c1.454,0,2.909-.208,3.948-.208h3.74a53.464,53.464,0,0,0,8.1-.208c0,.208,0,.416.208.416a18.3,18.3,0,0,0-3.532.416h.416V1.55c2.493,0,3.324-.416,5.195-.208h.416s-2.078-.208-1.039-.208h2.493c.623,0,1.039-.208,1.454-.208l-3.74.208h0V.511c2.493,0,4.779-.208,7.065,0h3.948c-.208.623,0,.416.416,0h6.026L130.386.3C132.464.3,134.334.1,136,.1V.719A1.256,1.256,0,0,0,137.243.1h2.078C143.477.1,152.2-.32,154.7.1h3.532C159.891.1,161.554.3,162.8.3l.623.208a34.98,34.98,0,0,1,6.857,1.454A47.254,47.254,0,0,1,185.448,10.9h0s1.039.831,2.078,1.87l2.078,1.662c-1.039-.831.831.623,2.078,1.454a35.193,35.193,0,0,0,5.61,2.7s1.87.416,2.7.623c-1.454-.208-1.247,0-.623.208a.763.763,0,0,1,.623.208,10.156,10.156,0,0,0,2.7.208H205.6l-.623-.208a38.406,38.406,0,0,1,4.779.208h0c2.7.208,1.662,0,1.662,0,1.039.208,1.87.208,2.493.416,3.324.208,6.649.623,9.766.831.208,0,.208,0,0-.208a5.483,5.483,0,0,0,1.454.208l6.233.623L229.5,21.5h0l-1.039-.208h1.247l-.208.208a42.853,42.853,0,0,1,4.363.416h1.662l-.623.208h-.208a2.635,2.635,0,0,1,1.247.208h2.078c1.662.208,2.493.416,3.74.623h-.623l-4.156-.416h-2.286a.91.91,0,0,0,.623.208h.416c.416.208.831.208,1.247.416h1.662l.831.208c3.117.208-.831-.416,2.078,0a7.707,7.707,0,0,0,2.909.416c.208-.208,1.662,0,2.286-.208-2.493-.208-3.74-.208-4.779-.416l5.195.208h0c.831,0,1.662.208,2.7.208-.831,0-1.662-.208-2.7-.208,3.74.416-2.909,0,2.286.416h-1.87c2.7.208,5.818.623,7.9.831l-.623-.208c-.831,0-1.454-.208-.623-.208.623,0,.831.208,1.454.208h1.454l-.208-.208c.623,0,1.247.208,1.662.208h.208c7.688.831,11.22,1.454,18.7,2.078h.208a27.912,27.912,0,0,0,3.948.208c.208,0,.623-.208.831-.208.416,0-.208.208-.623.208h.416l2.493-.623a12.44,12.44,0,0,1,2.493-.416c.208-.208.416-.208.623-.623a3.054,3.054,0,0,1,1.039-1.247,1.775,1.775,0,0,1,1.454,0h-.208c-.208,0-.416-.208-.831-.208a3.088,3.088,0,0,0-1.247.208,3.656,3.656,0,0,1,1.247-.208h.623c-.208,0-.208,0-.416-.208h-.623a2.339,2.339,0,0,0-1.662,1.039,1.943,1.943,0,0,1,1.454-1.039h.623a.763.763,0,0,1,.623.208,2.912,2.912,0,0,1,1.454.831h.208l.208.208h.208a10.721,10.721,0,0,0,2.286.416c-.208.208,1.039.623,2.078,1.039l.623.208,1.662.416h.208a.763.763,0,0,1,.623.208,1.575,1.575,0,0,1,.831.416c.416.208.623.623.831.831l-.208-.208-.208-.208c0,.208.208.208.208.416l.208.208a.2.2,0,0,0,.208.208c.208.208.208.416.416.623h0a2.953,2.953,0,0,0-.416-1.247,6.811,6.811,0,0,0-1.662-1.247c.416,0,.831.416,1.247.623.208.208.416.208.623.416a3.588,3.588,0,0,1,.623.831l-.416-.623a.2.2,0,0,0-.208-.208c.208.208.208.416.416.623,0,.208.208.623.208.831V30.64c0,.416,0,.831.208.831l-.208,1.87v2.078l.208-.208c0,.831,0,1.662.208.416-.208,2.286-.208,4.779-.416,7.065V42.9h0V59.106l-.416,2.493c-.208.208-.208.831-.208,1.454h0A4.056,4.056,0,0,0,301.806,61.6ZM.731,36.25h0v0Zm10.6,8.1c.623,0,1.454,0,1.247-.831A1.4,1.4,0,0,0,11.328,44.353ZM10.081,55.989c.623,1.454,1.039-1.87,0,0ZM7.8,42.068c.623,0,1.454,0,1.247-.831A1.4,1.4,0,0,0,7.8,42.068Zm.831-10.6h0ZM5.095,27.315c.208-2.7-1.247-3.948-2.493-4.987-1.454.831,1.247,2.078-1.247,1.87C-.1,23.991,1.354,29.808,5.095,27.315ZM7.38,45.184c-1.87,0-2.493,1.039-3.532,1.87C5.3,46.639,7.38,47.054,7.38,45.184Zm7.48,43.634-1.039-.208H13.2a9,9,0,0,1-1.039-.208l.416.208a8.68,8.68,0,0,1-1.87-.623,20.244,20.244,0,0,0-2.286-1.039L8,86.533c-.208-.208-.623-.208-.831-.416a3.648,3.648,0,0,1,1.039.831h.208c.623.416,1.039.831,1.454,1.039-.208,0-.416-.208-.623-.416q-.623-.312-.623-.623l.208.416a8.979,8.979,0,0,0,5.195,1.662C12.575,88.818,15.691,89.234,14.86,88.818ZM15.9,28.977h-.831v.831H15.9Zm1.662-26.6C16.73.927,14.029,4.459,15.276,3.628,15.068,2.174,17.354,3.42,17.561,2.381Zm9.766,86.852h0ZM22.964,9.862a2.025,2.025,0,0,0,1.87-.831C23.795,9.03,22.34,8.615,22.964,9.862ZM20.886,90.273Zm13.09-.831H30.028c-.208,0,.416-.208.831-.208h.208c-1.247,0-2.078,0-1.454.208-1.662-.208-3.324,0-3.117-.208H23.587l1.454.208a5.753,5.753,0,0,1-1.87-.208H20.886c-.208.208-.831.416.416.623,3.74.208,3.117-.416,7.688-.416.416,0-1.039.208,1.454.208,1.039,0,2.286-.208,3.532-.208h0Zm0-8.727c1.87.416,0-1.454,0,0Zm7.9-47.79c0,.623,0,1.247.416,1.247C42.7,33.756,43.326,32.51,41.872,32.925ZM45.2,89.442Zm-.416-.208h.208C45.4,89.442,45.2,89.234,44.781,89.234Zm1.662-39.063c1.454.416.416-.831,0,0ZM47.69,87.364c0-.831-.416-1.039-1.247-.831v.831Zm-.416-4.571c1.87.416,0-1.247,0,0Zm1.039-34.076a16005.377,16005.377,0,0,0-.416.416v-.416C48.313,48.924,48.313,48.717,48.313,48.717Zm1.454-1.039c1.454.416.416-.831,0,0Zm4.363,7.688c.831.416.831-1.247,0-.831Zm4.363,34.076H56l-.208.208v-.208H54.339c1.247.208,3.532.416,3.74.416S58.286,89.649,58.494,89.442Zm9.558.416a7.373,7.373,0,0,0,1.454-.208h-.623A1.571,1.571,0,0,0,68.052,89.857Zm0-84.775H66.39v.831C67.221,5.914,68.468,6.329,68.052,5.083ZM69.3,89.857H68.052c-.208,0-.416.208-.623.208Zm1.662,0H69.3l.416.208A7.347,7.347,0,0,0,70.961,89.857Zm1.662-.208H71.584c.208,0,.208,0,.416.208A.763.763,0,0,1,72.623,89.649ZM72.831,51c1.87.416.208-1.247,0,0ZM78.649,1.758h0Zm1.87,85.606c-.623,0-1.662-.208-1.87.416C79.272,87.572,80.311,87.987,80.519,87.364Zm8.1-69.607c-.416.623-2.493-.208-2.493.831C86.752,17.965,88.415,18.588,88.622,17.757Zm6.026,71.892h0ZM96.31,63.885c-1.039,1.454,1.454-1.039,0,0Zm.208-43.842c1.247.208,0-1.039,0,0ZM98.18,48.717c1.454,1.454,1.247-1.454,0,0Zm3.948-5.195h-1.247c0,.623-.416.831-.623,1.247C101.3,44.769,102.336,44.769,102.128,43.522Zm1.662,22.025c-1.454,0-2.286-.831-3.117.416C101.5,66.793,103.167,66.17,103.79,65.547Zm5.4-19.739c-.623,0-1.454,0-1.247.831A1.4,1.4,0,0,0,109.193,45.808Zm.623-18.493c-.623,0-1.039,0-1.247.623C109.193,27.938,109.816,27.731,109.816,27.315Zm3.74,62.958h-3.117c-.208,0-.208,0-.208.208Zm12.467-25.557c1.87.416,0-1.247,0,0ZM130.8,78.845c1.87.416.208-1.247,0,0Zm1.039-47.374c-1.662-1.87-4.571-.831-5.61,1.039C127.685,31.886,131.841,33.964,131.841,31.471Zm1.247,46.543c1.87.416,0-1.247,0,0ZM137.451,61.6c1.87.416.208-1.247,0,0Zm0-46.958v0Zm4.156-13.09h-.416c-1.454-.208-7.272-.416-7.688-.416s-.623.208-.623.416h2.493l-2.078.208A11.888,11.888,0,0,0,136.2,1.55L136,1.758h.623l.416-.416v.416h3.532A3.636,3.636,0,0,1,141.607,1.55Zm.831,1.662c1.87.416,0-1.247,0,0Zm.623,28.258c2.7,4.363,1.454-3.74,0,0Zm1.87,53.607c1.87.416.208-1.247,0,0Zm1.454-83.112c1.87.416,0-1.454,0,0Zm6.649,86.229c1.87.416,0-1.247,0,0Zm3.532-4.156v.208h0ZM157.19,1.55a2.093,2.093,0,0,1-.623-.208c-.831,0-1.87.208-2.909.208Zm3.74,3.532c.623,1.454,1.039-1.87,0,0Zm4.987,18.493c1.662.416,0-1.247,0,0Zm1.039,14.337c-.623-.208-1.247,1.039-.623,1.039A4.543,4.543,0,0,0,166.956,37.912Zm9.973,0c-.208,1.662,1.247.208,0,0Zm1.662-.416c-.623,0-.831.416-.831,1.039C178.592,38.535,178.8,38.12,178.592,37.5Zm6.026,35.115c-1.039-1.039-5.818,1.87-3.74,3.74C181.916,77.6,186.487,74.689,184.617,72.611Zm-2.078-25.557c1.039.208,0-.831,0,0Zm2.286-31.375c.416.208-.208-.208,0,0Zm3.532-1.454c-1.039-.831-2.286-1.87-4.571-3.948-.623-.416,1.454.831-1.87-1.87a27.083,27.083,0,0,0-3.948-2.286c.623.416,1.247.623,1.87,1.039-1.662-.831-.831-.208-.416,0,0,0-.208-.208,0-.208l1.247.831,1.247.831c.416.416-.623-.416-1.247-.623a4.347,4.347,0,0,0-1.247-.831h-.416c.416.208.623.416,1.039.623a15.162,15.162,0,0,1,2.7,1.87l.623.831c.208.208.416.208.623.416,1.247.831,1.454,1.039,1.87,1.247A6.851,6.851,0,0,0,188.357,14.225Zm.416,1.039H186.9v.831C187.942,15.887,189.188,16.51,188.773,15.264Zm.416,1.662c0-.208.416.208,0,0Zm5.4,1.247h0c-2.909-1.662-4.156-2.286-5.4-3.117-.623-.416,2.286,1.662,1.039,1.039a16.451,16.451,0,0,0,4.363,2.078h0Zm.208-.208Zm4.571,18.908c1.454.416.208-1.247,0,0Zm11.22,4.987c-.208.831-1.247.208-1.039,1.662C210.382,43.73,211.005,41.86,210.59,41.86Zm5.4,1.87c0,.623-.623.623-.623,1.247C215.992,45.392,216.823,43.938,215.992,43.73Zm1.454,0c-.208,0,.208.416,0,0ZM237.6,31.055h-.831v.831h.831Zm3.117-7.065c.208.416-.208-.208,0,0Zm1.247,4.363c-.416-.831-1.454-1.454-1.87,0C240.926,27.938,241.549,29.808,241.965,28.354Zm.416,15.584c-.416,2.493,1.87.208,0,0Zm4.363-18.493c-1.039-.208-1.662.208-1.87.831C246.12,26.276,246.744,26.068,246.744,25.445Zm8.1,42.6h.416C255.471,68.04,255.678,67.832,254.847,68.04Zm1.039-43.634h0a2.259,2.259,0,0,0,1.039.208c.831,0,.208-.208-1.039-.208Zm2.078,16.415a2.339,2.339,0,0,0-2.286,1.454C256.925,42.068,258.379,42.275,257.964,40.821ZM263.99,56.4c-1.87,0-3.117,4.363-2.286,4.571C262.12,58.9,263.99,58.69,263.99,56.4Zm9.142-20.778c-.208-.416.416.208,0,0Zm3.117,3.532c-.416-.208.208.416,0,0Zm8.727,2.7c-2.493.623-4.779,1.454-4.987,3.948C282.9,45.808,283.729,43.522,284.975,41.86Zm5.61-7.272Zm2.7,18.285c-4.363.623,1.87,0,0,0Zm1.247,13.714c-.208-.208.416.208,0,0Zm.416-15.168c-2.078,1.039,1.662,1.247,0,0Zm2.7-23.064c.416.416-.208,0,0,0ZM297.235,35c2.286.623.416-1.247,0,0Zm4.156.831h0v0Zm.208,27.635ZM112.517.719h-1.247A1.325,1.325,0,0,0,112.517.719ZM6.965,86.74c-.208,0,0,.208,0,0C6.757,86.74,8,87.779,8,87.572A5.684,5.684,0,0,1,6.965,86.74ZM4.679,83.416c-.208-.416-.416-.623-.416-.831C4.056,82.377,4.263,82.793,4.679,83.416Zm10.389,6.857c-.623.208,3.324,0,.623-.208C15.276,90.065,15.276,90.273,15.068,90.273Z" transform="translate(0 0)" fill="#231f20"/>
    </g>
    <line id="Line_4" data-name="Line 4" x2="335" transform="translate(416.5 235.5)" fill="none" stroke="#000" stroke-width="4"/>
    <line id="Line_5" data-name="Line 5" x2="335" transform="translate(1169 235.5)" fill="none" stroke="#000" stroke-width="4"/>
  </g>
</svg>
