<svg xmlns="http://www.w3.org/2000/svg" width="46.479" height="41.315" viewBox="0 0 46.479 41.315">
  <path id="external-link-alt-solid" d="M46.479,1.937V12.264a1.938,1.938,0,0,1-3.306,1.369l-2.881-2.881L20.641,30.4a1.937,1.937,0,0,1-2.739,0l-1.826-1.826a1.937,1.937,0,0,1,0-2.739L35.728,6.187,32.847,3.306A1.938,1.938,0,0,1,34.216,0H44.543A1.937,1.937,0,0,1,46.479,1.937ZM32.845,21.851l-1.291,1.291a1.937,1.937,0,0,0-.567,1.369V36.151H5.164V10.329h21.3a1.937,1.937,0,0,0,1.369-.567L29.128,8.47a1.937,1.937,0,0,0-1.369-3.306H3.873A3.873,3.873,0,0,0,0,9.038v28.4a3.873,3.873,0,0,0,3.873,3.873h28.4a3.873,3.873,0,0,0,3.873-3.873V23.221A1.937,1.937,0,0,0,32.845,21.851Z"/>
</svg>
